<mxfile host="app.diagrams.net" modified="2024-04-17T23:12:02.291Z" agent="Mozilla/5.0 (Windows NT 10.0; Win64; x64; rv:125.0) Gecko/20100101 Firefox/125.0" etag="ANc2oTCkXNnY3OtpfLrw" version="24.2.5" type="google">
  <diagram name="Page-1" id="gRDTcYi7VveyhDEqkJ12">
    <mxGraphModel grid="1" page="1" gridSize="10" guides="1" tooltips="1" connect="1" arrows="1" fold="1" pageScale="1" pageWidth="850" pageHeight="1100" math="0" shadow="0">
      <root>
        <mxCell id="0" />
        <mxCell id="1" parent="0" />
        <mxCell id="-zmKZdaueqmbXMVK9XKt-10" value="Archiving" style="swimlane;whiteSpace=wrap" vertex="1" parent="1">
          <mxGeometry x="54.5" y="-4" width="300" height="984" as="geometry" />
        </mxCell>
        <mxCell id="-zmKZdaueqmbXMVK9XKt-3" value="" style="ellipse;html=1;shape=startState;fillColor=#000000;strokeColor=#ff0000;" vertex="1" parent="-zmKZdaueqmbXMVK9XKt-10">
          <mxGeometry x="135" y="44" width="30" height="30" as="geometry" />
        </mxCell>
        <mxCell id="-zmKZdaueqmbXMVK9XKt-4" value="" style="edgeStyle=orthogonalEdgeStyle;html=1;verticalAlign=bottom;endArrow=open;endSize=8;strokeColor=#ff0000;rounded=0;" edge="1" parent="-zmKZdaueqmbXMVK9XKt-10" source="-zmKZdaueqmbXMVK9XKt-3">
          <mxGeometry relative="1" as="geometry">
            <mxPoint x="150" y="134" as="targetPoint" />
          </mxGeometry>
        </mxCell>
        <mxCell id="-zmKZdaueqmbXMVK9XKt-2" value="Log into Ionos" style="rounded=1;whiteSpace=wrap;html=1;arcSize=40;fontColor=#000000;fillColor=#ffffc0;strokeColor=#ff0000;" vertex="1" parent="-zmKZdaueqmbXMVK9XKt-10">
          <mxGeometry x="90" y="134" width="120" height="40" as="geometry" />
        </mxCell>
        <mxCell id="-zmKZdaueqmbXMVK9XKt-34" value="Select Hosting option " style="rounded=1;whiteSpace=wrap;html=1;arcSize=40;fontColor=#000000;fillColor=#ffffc0;strokeColor=#ff0000;" vertex="1" parent="-zmKZdaueqmbXMVK9XKt-10">
          <mxGeometry x="90" y="254" width="120" height="40" as="geometry" />
        </mxCell>
        <mxCell id="-zmKZdaueqmbXMVK9XKt-35" value="Select Database using PhpMyAdmin" style="rounded=1;whiteSpace=wrap;html=1;arcSize=40;fontColor=#000000;fillColor=#ffffc0;strokeColor=#ff0000;" vertex="1" parent="-zmKZdaueqmbXMVK9XKt-10">
          <mxGeometry x="90" y="344" width="120" height="40" as="geometry" />
        </mxCell>
        <mxCell id="-zmKZdaueqmbXMVK9XKt-36" value="Select Dataset to be archived and export it" style="rounded=1;whiteSpace=wrap;html=1;arcSize=40;fontColor=#000000;fillColor=#ffffc0;strokeColor=#ff0000;" vertex="1" parent="-zmKZdaueqmbXMVK9XKt-10">
          <mxGeometry x="90" y="434" width="120" height="40" as="geometry" />
        </mxCell>
        <mxCell id="-zmKZdaueqmbXMVK9XKt-41" value="Download file into temporary storage" style="rounded=1;whiteSpace=wrap;html=1;arcSize=40;fontColor=#000000;fillColor=#ffffc0;strokeColor=#ff0000;" vertex="1" parent="-zmKZdaueqmbXMVK9XKt-10">
          <mxGeometry x="90" y="534" width="120" height="40" as="geometry" />
        </mxCell>
        <mxCell id="-zmKZdaueqmbXMVK9XKt-42" value="&lt;div&gt;SQL file in&amp;nbsp;&lt;/div&gt;&lt;div&gt;temporary storage&lt;/div&gt;" style="html=1;labelBackgroundColor=none;strokeColor=#FF0000;fontColor=#000000;fillColor=#FFFFC0;" vertex="1" parent="-zmKZdaueqmbXMVK9XKt-10">
          <mxGeometry x="90" y="624" width="120" height="76" as="geometry" />
        </mxCell>
        <mxCell id="-zmKZdaueqmbXMVK9XKt-43" value="Send file to external storage" style="rounded=1;whiteSpace=wrap;html=1;arcSize=40;fontColor=#000000;fillColor=#ffffc0;strokeColor=#ff0000;" vertex="1" parent="-zmKZdaueqmbXMVK9XKt-10">
          <mxGeometry x="90" y="754.75" width="120" height="40" as="geometry" />
        </mxCell>
        <mxCell id="-zmKZdaueqmbXMVK9XKt-49" value="" style="edgeStyle=orthogonalEdgeStyle;html=1;verticalAlign=bottom;endArrow=open;endSize=8;strokeColor=#ff0000;rounded=0;exitX=0.5;exitY=1;exitDx=0;exitDy=0;entryX=0.5;entryY=0;entryDx=0;entryDy=0;" edge="1" parent="-zmKZdaueqmbXMVK9XKt-10" source="-zmKZdaueqmbXMVK9XKt-34" target="-zmKZdaueqmbXMVK9XKt-35">
          <mxGeometry relative="1" as="geometry">
            <mxPoint x="245.5" y="364" as="targetPoint" />
            <mxPoint x="245.5" y="304" as="sourcePoint" />
          </mxGeometry>
        </mxCell>
        <mxCell id="-zmKZdaueqmbXMVK9XKt-55" value="" style="edgeStyle=orthogonalEdgeStyle;html=1;verticalAlign=bottom;endArrow=open;endSize=8;strokeColor=#ff0000;rounded=0;exitX=0.5;exitY=1;exitDx=0;exitDy=0;entryX=0.5;entryY=0;entryDx=0;entryDy=0;" edge="1" parent="-zmKZdaueqmbXMVK9XKt-10" source="-zmKZdaueqmbXMVK9XKt-41" target="-zmKZdaueqmbXMVK9XKt-42">
          <mxGeometry relative="1" as="geometry">
            <mxPoint x="255.5" y="634" as="targetPoint" />
            <mxPoint x="255.5" y="574" as="sourcePoint" />
          </mxGeometry>
        </mxCell>
        <mxCell id="-zmKZdaueqmbXMVK9XKt-56" value="" style="edgeStyle=orthogonalEdgeStyle;html=1;verticalAlign=bottom;endArrow=open;endSize=8;strokeColor=#ff0000;rounded=0;exitX=0.5;exitY=1;exitDx=0;exitDy=0;entryX=0.5;entryY=0;entryDx=0;entryDy=0;" edge="1" parent="-zmKZdaueqmbXMVK9XKt-10" source="-zmKZdaueqmbXMVK9XKt-42" target="-zmKZdaueqmbXMVK9XKt-43">
          <mxGeometry relative="1" as="geometry">
            <mxPoint x="245.5" y="634" as="targetPoint" />
            <mxPoint x="245.5" y="574" as="sourcePoint" />
          </mxGeometry>
        </mxCell>
        <mxCell id="-zmKZdaueqmbXMVK9XKt-29" value="IONOS" style="swimlane;whiteSpace=wrap" vertex="1" parent="1">
          <mxGeometry x="354.5" y="-4" width="300" height="984" as="geometry" />
        </mxCell>
        <mxCell id="-zmKZdaueqmbXMVK9XKt-32" value="Valid credentials?" style="rhombus;whiteSpace=wrap;html=1;fontColor=#000000;fillColor=#ffffc0;strokeColor=#ff0000;" vertex="1" parent="-zmKZdaueqmbXMVK9XKt-29">
          <mxGeometry x="87.75" y="174" width="124.5" height="66" as="geometry" />
        </mxCell>
        <mxCell id="-zmKZdaueqmbXMVK9XKt-33" value="Request login information again" style="rounded=1;whiteSpace=wrap;html=1;arcSize=40;fontColor=#000000;fillColor=#ffffc0;strokeColor=#ff0000;" vertex="1" parent="-zmKZdaueqmbXMVK9XKt-29">
          <mxGeometry x="90" y="84" width="120" height="40" as="geometry" />
        </mxCell>
        <mxCell id="-zmKZdaueqmbXMVK9XKt-38" value="Request database export of dataset" style="rounded=1;whiteSpace=wrap;html=1;arcSize=40;fontColor=#000000;fillColor=#ffffc0;strokeColor=#ff0000;" vertex="1" parent="-zmKZdaueqmbXMVK9XKt-29">
          <mxGeometry x="90" y="434" width="120" height="40" as="geometry" />
        </mxCell>
        <mxCell id="-zmKZdaueqmbXMVK9XKt-47" value="" style="edgeStyle=orthogonalEdgeStyle;html=1;verticalAlign=bottom;endArrow=open;endSize=8;strokeColor=#ff0000;rounded=0;entryX=0.5;entryY=1;entryDx=0;entryDy=0;exitX=0.5;exitY=0;exitDx=0;exitDy=0;" edge="1" parent="-zmKZdaueqmbXMVK9XKt-29" source="-zmKZdaueqmbXMVK9XKt-32" target="-zmKZdaueqmbXMVK9XKt-33">
          <mxGeometry relative="1" as="geometry">
            <mxPoint x="215.5" y="194" as="targetPoint" />
            <mxPoint x="215.5" y="134" as="sourcePoint" />
          </mxGeometry>
        </mxCell>
        <mxCell id="-zmKZdaueqmbXMVK9XKt-71" value="No" style="text;html=1;strokeColor=none;fillColor=none;align=center;verticalAlign=middle;whiteSpace=wrap;rounded=0;" vertex="1" parent="-zmKZdaueqmbXMVK9XKt-29">
          <mxGeometry x="135.5" y="124" width="60" height="30" as="geometry" />
        </mxCell>
        <mxCell id="-zmKZdaueqmbXMVK9XKt-72" value="Yes" style="text;html=1;strokeColor=none;fillColor=none;align=center;verticalAlign=middle;whiteSpace=wrap;rounded=0;" vertex="1" parent="-zmKZdaueqmbXMVK9XKt-29">
          <mxGeometry x="95.5" y="244" width="60" height="30" as="geometry" />
        </mxCell>
        <mxCell id="3nlVgNNjyTv8c687gCtG-2" value="Displays the Database through the PhpMyAdmin interface" style="rounded=1;whiteSpace=wrap;html=1;arcSize=40;fontColor=#000000;fillColor=#ffffc0;strokeColor=#ff0000;" vertex="1" parent="-zmKZdaueqmbXMVK9XKt-29">
          <mxGeometry x="75" y="336" width="150" height="56" as="geometry" />
        </mxCell>
        <mxCell id="-zmKZdaueqmbXMVK9XKt-30" value="Database" style="swimlane;whiteSpace=wrap" vertex="1" parent="1">
          <mxGeometry x="654.5" y="-4" width="300" height="984" as="geometry" />
        </mxCell>
        <mxCell id="-zmKZdaueqmbXMVK9XKt-39" value="Create exported dataset to SQL file" style="rounded=1;whiteSpace=wrap;html=1;arcSize=40;fontColor=#000000;fillColor=#ffffc0;strokeColor=#ff0000;" vertex="1" parent="-zmKZdaueqmbXMVK9XKt-30">
          <mxGeometry x="95.5" y="434" width="120" height="40" as="geometry" />
        </mxCell>
        <mxCell id="-zmKZdaueqmbXMVK9XKt-40" value="SQL file" style="html=1;labelBackgroundColor=none;strokeColor=#FF0000;fontColor=#000000;fillColor=#FFFFC0;" vertex="1" parent="-zmKZdaueqmbXMVK9XKt-30">
          <mxGeometry x="115.5" y="529" width="80" height="51" as="geometry" />
        </mxCell>
        <mxCell id="ezdwuy1LQb21JshlXySH-2" value="" style="edgeStyle=none;curved=1;rounded=0;orthogonalLoop=1;jettySize=auto;html=1;fontSize=12;startSize=8;endSize=8;" edge="1" parent="-zmKZdaueqmbXMVK9XKt-30" source="3nlVgNNjyTv8c687gCtG-4" target="3nlVgNNjyTv8c687gCtG-6">
          <mxGeometry relative="1" as="geometry" />
        </mxCell>
        <mxCell id="3nlVgNNjyTv8c687gCtG-4" value="Create log file of SQL export." style="rounded=1;whiteSpace=wrap;html=1;arcSize=40;fontColor=#000000;fillColor=#ffffc0;strokeColor=#ff0000;" vertex="1" parent="-zmKZdaueqmbXMVK9XKt-30">
          <mxGeometry x="95.5" y="344" width="120" height="40" as="geometry" />
        </mxCell>
        <mxCell id="3nlVgNNjyTv8c687gCtG-5" value="" style="edgeStyle=orthogonalEdgeStyle;html=1;verticalAlign=bottom;endArrow=open;endSize=8;strokeColor=#ff0000;rounded=0;exitX=0.5;exitY=0;exitDx=0;exitDy=0;entryX=0.5;entryY=1;entryDx=0;entryDy=0;" edge="1" parent="-zmKZdaueqmbXMVK9XKt-30" source="-zmKZdaueqmbXMVK9XKt-39" target="3nlVgNNjyTv8c687gCtG-4">
          <mxGeometry relative="1" as="geometry">
            <mxPoint x="265.5" y="429" as="targetPoint" />
            <mxPoint x="265.5" y="374" as="sourcePoint" />
          </mxGeometry>
        </mxCell>
        <mxCell id="3nlVgNNjyTv8c687gCtG-6" value="SQL log file" style="html=1;labelBackgroundColor=none;strokeColor=#FF0000;fontColor=#000000;fillColor=#FFFFC0;" vertex="1" parent="-zmKZdaueqmbXMVK9XKt-30">
          <mxGeometry x="115.5" y="254" width="80" height="51" as="geometry" />
        </mxCell>
        <mxCell id="ezdwuy1LQb21JshlXySH-1" value="return" style="html=1;verticalAlign=bottom;endArrow=open;dashed=1;endSize=8;curved=0;rounded=0;fontSize=12;entryX=0.476;entryY=1.021;entryDx=0;entryDy=0;entryPerimeter=0;exitX=0.487;exitY=-0.011;exitDx=0;exitDy=0;exitPerimeter=0;" edge="1" parent="-zmKZdaueqmbXMVK9XKt-30">
          <mxGeometry x="-0.4511" y="30" relative="1" as="geometry">
            <mxPoint x="155.68000000000006" y="344.00000000000017" as="sourcePoint" />
            <mxPoint x="155.31999999999994" y="306.51100000000014" as="targetPoint" />
            <mxPoint as="offset" />
          </mxGeometry>
        </mxCell>
        <mxCell id="3nlVgNNjyTv8c687gCtG-8" value="return" style="html=1;verticalAlign=bottom;endArrow=open;dashed=1;endSize=8;curved=0;rounded=0;fontSize=12;entryX=0.5;entryY=0;entryDx=0;entryDy=0;exitX=0.5;exitY=1;exitDx=0;exitDy=0;" edge="1" parent="-zmKZdaueqmbXMVK9XKt-30">
          <mxGeometry x="0.0909" y="26" relative="1" as="geometry">
            <mxPoint x="155.15999999999977" y="474" as="sourcePoint" />
            <mxPoint x="155.15999999999977" y="529" as="targetPoint" />
            <mxPoint as="offset" />
          </mxGeometry>
        </mxCell>
        <mxCell id="-zmKZdaueqmbXMVK9XKt-31" value="USER" style="swimlane;whiteSpace=wrap" vertex="1" parent="1">
          <mxGeometry x="954.5" y="-4" width="300" height="984" as="geometry" />
        </mxCell>
        <mxCell id="-zmKZdaueqmbXMVK9XKt-5" value="" style="ellipse;html=1;shape=endState;fillColor=#000000;strokeColor=#ff0000;" vertex="1" parent="-zmKZdaueqmbXMVK9XKt-31">
          <mxGeometry x="125.5" y="884" width="30" height="30" as="geometry" />
        </mxCell>
        <mxCell id="-zmKZdaueqmbXMVK9XKt-45" value="&lt;div&gt;Archived SQL data on&amp;nbsp;&lt;/div&gt;&lt;div&gt;Secure external storage location.&lt;/div&gt;" style="html=1;labelBackgroundColor=none;strokeColor=#FF0000;fontColor=#000000;fillColor=#FFFFC0;" vertex="1" parent="-zmKZdaueqmbXMVK9XKt-31">
          <mxGeometry x="55.5" y="724" width="170" height="101.5" as="geometry" />
        </mxCell>
        <mxCell id="-zmKZdaueqmbXMVK9XKt-58" value="" style="edgeStyle=orthogonalEdgeStyle;html=1;verticalAlign=bottom;endArrow=open;endSize=8;strokeColor=#ff0000;rounded=0;exitX=0.5;exitY=1;exitDx=0;exitDy=0;" edge="1" parent="-zmKZdaueqmbXMVK9XKt-31" source="-zmKZdaueqmbXMVK9XKt-45" target="-zmKZdaueqmbXMVK9XKt-5">
          <mxGeometry relative="1" as="geometry">
            <mxPoint x="95.5" y="929" as="targetPoint" />
            <mxPoint x="95.5" y="869" as="sourcePoint" />
          </mxGeometry>
        </mxCell>
        <mxCell id="-zmKZdaueqmbXMVK9XKt-46" value="" style="edgeStyle=orthogonalEdgeStyle;html=1;verticalAlign=bottom;endArrow=open;endSize=8;strokeColor=#ff0000;rounded=0;exitX=1;exitY=0.5;exitDx=0;exitDy=0;entryX=0;entryY=0.5;entryDx=0;entryDy=0;" edge="1" parent="1" source="-zmKZdaueqmbXMVK9XKt-2" target="-zmKZdaueqmbXMVK9XKt-32">
          <mxGeometry relative="1" as="geometry">
            <mxPoint x="320" y="210" as="targetPoint" />
            <mxPoint x="320" y="150" as="sourcePoint" />
            <Array as="points">
              <mxPoint x="310" y="150" />
              <mxPoint x="310" y="203" />
            </Array>
          </mxGeometry>
        </mxCell>
        <mxCell id="-zmKZdaueqmbXMVK9XKt-48" value="" style="edgeStyle=orthogonalEdgeStyle;html=1;verticalAlign=bottom;endArrow=open;endSize=8;strokeColor=#ff0000;rounded=0;exitX=0.5;exitY=1;exitDx=0;exitDy=0;entryX=1;entryY=0.5;entryDx=0;entryDy=0;" edge="1" parent="1" source="-zmKZdaueqmbXMVK9XKt-32" target="-zmKZdaueqmbXMVK9XKt-34">
          <mxGeometry relative="1" as="geometry">
            <mxPoint x="330" y="310" as="targetPoint" />
            <mxPoint x="330" y="250" as="sourcePoint" />
          </mxGeometry>
        </mxCell>
        <mxCell id="-zmKZdaueqmbXMVK9XKt-51" value="" style="edgeStyle=orthogonalEdgeStyle;html=1;verticalAlign=bottom;endArrow=open;endSize=8;strokeColor=#ff0000;rounded=0;exitX=1.023;exitY=0.5;exitDx=0;exitDy=0;exitPerimeter=0;entryX=0;entryY=0.5;entryDx=0;entryDy=0;" edge="1" parent="1" source="-zmKZdaueqmbXMVK9XKt-36" target="-zmKZdaueqmbXMVK9XKt-38">
          <mxGeometry relative="1" as="geometry">
            <mxPoint x="330" y="470" as="targetPoint" />
            <mxPoint x="330" y="410" as="sourcePoint" />
          </mxGeometry>
        </mxCell>
        <mxCell id="-zmKZdaueqmbXMVK9XKt-52" value="" style="edgeStyle=orthogonalEdgeStyle;html=1;verticalAlign=bottom;endArrow=open;endSize=8;strokeColor=#ff0000;rounded=0;exitX=1;exitY=0.5;exitDx=0;exitDy=0;entryX=0;entryY=0.5;entryDx=0;entryDy=0;" edge="1" parent="1" source="-zmKZdaueqmbXMVK9XKt-38" target="-zmKZdaueqmbXMVK9XKt-39">
          <mxGeometry relative="1" as="geometry">
            <mxPoint x="620" y="490" as="targetPoint" />
            <mxPoint x="620" y="430" as="sourcePoint" />
          </mxGeometry>
        </mxCell>
        <mxCell id="-zmKZdaueqmbXMVK9XKt-54" value="" style="edgeStyle=orthogonalEdgeStyle;html=1;verticalAlign=bottom;endArrow=open;endSize=8;strokeColor=#ff0000;rounded=0;exitX=0;exitY=0.5;exitDx=0;exitDy=0;entryX=1;entryY=0.5;entryDx=0;entryDy=0;" edge="1" parent="1" source="-zmKZdaueqmbXMVK9XKt-40" target="-zmKZdaueqmbXMVK9XKt-41">
          <mxGeometry relative="1" as="geometry">
            <mxPoint x="566.75" y="570" as="targetPoint" />
            <mxPoint x="566.75" y="510" as="sourcePoint" />
          </mxGeometry>
        </mxCell>
        <mxCell id="-zmKZdaueqmbXMVK9XKt-57" value="" style="edgeStyle=orthogonalEdgeStyle;html=1;verticalAlign=bottom;endArrow=open;endSize=8;strokeColor=#ff0000;rounded=0;exitX=1;exitY=0.5;exitDx=0;exitDy=0;entryX=0;entryY=0.5;entryDx=0;entryDy=0;" edge="1" parent="1" source="-zmKZdaueqmbXMVK9XKt-43" target="-zmKZdaueqmbXMVK9XKt-45">
          <mxGeometry relative="1" as="geometry">
            <mxPoint x="490" y="650" as="targetPoint" />
            <mxPoint x="490" y="590" as="sourcePoint" />
          </mxGeometry>
        </mxCell>
        <mxCell id="3nlVgNNjyTv8c687gCtG-1" value="" style="edgeStyle=orthogonalEdgeStyle;html=1;verticalAlign=bottom;endArrow=open;endSize=8;strokeColor=#ff0000;rounded=0;exitX=0;exitY=0.5;exitDx=0;exitDy=0;entryX=1;entryY=0.25;entryDx=0;entryDy=0;" edge="1" parent="1" source="-zmKZdaueqmbXMVK9XKt-33" target="-zmKZdaueqmbXMVK9XKt-2">
          <mxGeometry relative="1" as="geometry">
            <mxPoint x="320" y="120" as="targetPoint" />
            <mxPoint x="320" y="70" as="sourcePoint" />
            <Array as="points">
              <mxPoint x="310" y="100" />
              <mxPoint x="310" y="140" />
            </Array>
          </mxGeometry>
        </mxCell>
        <mxCell id="-zmKZdaueqmbXMVK9XKt-50" value="" style="edgeStyle=orthogonalEdgeStyle;html=1;verticalAlign=bottom;endArrow=open;endSize=8;strokeColor=#ff0000;rounded=0;exitX=0.25;exitY=1;exitDx=0;exitDy=0;entryX=0.5;entryY=0;entryDx=0;entryDy=0;" edge="1" parent="1" source="3nlVgNNjyTv8c687gCtG-2" target="-zmKZdaueqmbXMVK9XKt-36">
          <mxGeometry relative="1" as="geometry">
            <mxPoint x="300" y="430" as="targetPoint" />
            <mxPoint x="300" y="370" as="sourcePoint" />
          </mxGeometry>
        </mxCell>
        <mxCell id="3nlVgNNjyTv8c687gCtG-3" value="" style="edgeStyle=orthogonalEdgeStyle;html=1;verticalAlign=bottom;endArrow=open;endSize=8;strokeColor=#ff0000;rounded=0;exitX=1;exitY=0.5;exitDx=0;exitDy=0;entryX=0;entryY=0.5;entryDx=0;entryDy=0;" edge="1" parent="1" source="-zmKZdaueqmbXMVK9XKt-35" target="3nlVgNNjyTv8c687gCtG-2">
          <mxGeometry relative="1" as="geometry">
            <mxPoint x="330" y="400" as="targetPoint" />
            <mxPoint x="330" y="350" as="sourcePoint" />
          </mxGeometry>
        </mxCell>
      </root>
    </mxGraphModel>
  </diagram>
</mxfile>
